<?xml version="1.0" encoding="UTF-8" standalone="no"?>
<!-- Generator: Adobe Illustrator 16.0.0, SVG Export Plug-In . SVG Version: 6.00 Build 0)  -->

<svg
   xmlns:dc="http://purl.org/dc/elements/1.1/"
   xmlns:cc="http://creativecommons.org/ns#"
   xmlns:rdf="http://www.w3.org/1999/02/22-rdf-syntax-ns#"
   xmlns:svg="http://www.w3.org/2000/svg"
   xmlns="http://www.w3.org/2000/svg"
   xmlns:sodipodi="http://sodipodi.sourceforge.net/DTD/sodipodi-0.dtd"
   xmlns:inkscape="http://www.inkscape.org/namespaces/inkscape"
   version="1.1"
   id="Capa_1"
   x="0px"
   y="0px"
   width="24"
   height="24"
   viewBox="0 0 24 24"
   xml:space="preserve"
   inkscape:version="0.91 r13725"
   sodipodi:docname="flash-off.svg"><metadata
     id="metadata4325"><rdf:RDF><cc:Work
         rdf:about=""><dc:format>image/svg+xml</dc:format><dc:type
           rdf:resource="http://purl.org/dc/dcmitype/StillImage" /><dc:title></dc:title></cc:Work></rdf:RDF></metadata><defs
     id="defs4323" /><sodipodi:namedview
     pagecolor="#ffffff"
     bordercolor="#666666"
     borderopacity="1"
     objecttolerance="10"
     gridtolerance="10"
     guidetolerance="10"
     inkscape:pageopacity="0"
     inkscape:pageshadow="2"
     inkscape:window-width="1440"
     inkscape:window-height="852"
     id="namedview4321"
     showgrid="false"
     inkscape:zoom="27.083333"
     inkscape:cx="12"
     inkscape:cy="12"
     inkscape:window-x="0"
     inkscape:window-y="0"
     inkscape:window-maximized="1"
     inkscape:current-layer="Capa_1" /><g
     id="g4286"
     transform="matrix(0.03921569,0,0,0.03921569,1.999999,1.999999)"><g
       id="flash-off"><path
         d="m 71.4,25.5 -33.15,33.15 127.5,127.5 0,94.35 76.5,0 0,229.5 91.8,-155.55 L 438.6,459 471.75,425.85 71.4,25.5 Z m 349.35,178.5 -102,0 102,-204 -255,0 0,56.1 L 382.5,272.85 420.75,204 Z"
         id="path4289"
         inkscape:connector-curvature="0" /></g></g><g
     id="g4291"
     transform="matrix(0.03921569,0,0,0.03921569,36.75,4)" /><g
     id="g4293"
     transform="matrix(0.03921569,0,0,0.03921569,36.75,4)" /><g
     id="g4295"
     transform="matrix(0.03921569,0,0,0.03921569,36.75,4)" /><g
     id="g4297"
     transform="matrix(0.03921569,0,0,0.03921569,36.75,4)" /><g
     id="g4299"
     transform="matrix(0.03921569,0,0,0.03921569,36.75,4)" /><g
     id="g4301"
     transform="matrix(0.03921569,0,0,0.03921569,36.75,4)" /><g
     id="g4303"
     transform="matrix(0.03921569,0,0,0.03921569,36.75,4)" /><g
     id="g4305"
     transform="matrix(0.03921569,0,0,0.03921569,36.75,4)" /><g
     id="g4307"
     transform="matrix(0.03921569,0,0,0.03921569,36.75,4)" /><g
     id="g4309"
     transform="matrix(0.03921569,0,0,0.03921569,36.75,4)" /><g
     id="g4311"
     transform="matrix(0.03921569,0,0,0.03921569,36.75,4)" /><g
     id="g4313"
     transform="matrix(0.03921569,0,0,0.03921569,36.75,4)" /><g
     id="g4315"
     transform="matrix(0.03921569,0,0,0.03921569,36.75,4)" /><g
     id="g4317"
     transform="matrix(0.03921569,0,0,0.03921569,36.75,4)" /><g
     id="g4319"
     transform="matrix(0.03921569,0,0,0.03921569,36.75,4)" /></svg>